<?xml version="1.0" encoding="UTF-8" standalone="no"?>
<!DOCTYPE svg PUBLIC "-//W3C//DTD SVG 20010904//EN"
              "http://www.w3.org/TR/2001/REC-SVG-20010904/DTD/svg10.dtd">

<svg xmlns="http://www.w3.org/2000/svg"
     width="16.0833in" height="2.45833in"
     viewBox="0 0 1158 177">
  <path id="Selection"
        fill="black" stroke="black" stroke-width="1"
        d="M 18.09,13.33
           C 20.03,13.34 25.78,17.66 28.00,18.92
             35.14,22.96 52.28,33.80 60.00,34.34
             62.60,34.52 69.92,32.79 73.00,32.25
             73.00,32.25 99.00,26.04 99.00,26.04
             99.00,26.04 107.00,22.26 107.00,22.26
             117.14,17.36 122.02,16.87 133.00,17.00
             141.57,17.11 149.40,20.94 154.49,28.00
             156.92,31.36 157.07,34.43 158.84,36.59
             161.74,40.11 164.70,38.39 170.00,45.00
             163.16,46.94 157.28,44.80 153.21,47.74
             145.78,53.10 146.44,66.19 142.03,75.00
             133.09,92.90 121.70,96.25 104.00,101.00
             107.52,106.54 121.58,124.12 127.00,126.83
             132.24,129.44 133.77,125.98 141.00,129.00
             141.00,129.00 134.00,132.00 134.00,132.00
             139.81,132.06 143.05,131.76 145.00,138.00
             145.00,138.00 125.00,133.00 125.00,133.00
             125.00,133.00 125.00,135.00 125.00,135.00
             125.00,135.00 115.00,129.55 115.00,129.55
             115.00,129.55 98.00,128.00 98.00,128.00
             100.41,121.14 107.35,123.25 113.00,124.00
             111.86,118.03 102.63,103.78 96.96,101.60
             92.98,100.07 81.69,99.81 80.52,105.06
             80.05,107.17 81.19,112.64 81.59,115.00
             82.90,122.81 84.56,134.79 90.39,140.61
             95.77,145.99 100.66,143.05 104.00,151.00
             104.00,151.00 90.00,147.00 90.00,147.00
             93.66,154.34 94.85,154.50 96.00,163.00
             90.29,161.07 87.83,153.92 85.00,149.00
             82.05,153.98 80.03,154.51 75.00,157.00
             75.33,151.22 78.21,151.48 80.55,146.96
             81.98,144.20 82.08,141.05 81.96,138.00
             81.64,129.76 75.39,103.75 71.16,97.00
             67.86,91.74 62.82,89.78 59.44,84.91
             54.51,77.78 54.61,70.88 52.41,68.56
             49.15,65.13 40.44,65.00 36.00,65.00
             38.18,58.36 45.68,55.58 46.01,51.00
             46.30,46.99 40.98,41.76 37.98,39.67
             27.05,32.05 19.93,30.46 8.00,26.00
             9.06,22.39 13.77,13.33 18.09,13.33 Z
           M 241.00,52.00
           C 241.00,52.00 241.00,114.00 241.00,114.00
             241.00,114.00 234.00,114.00 234.00,114.00
             234.00,114.00 234.00,52.00 234.00,52.00
             234.00,52.00 241.00,52.00 241.00,52.00 Z
           M 396.00,52.00
           C 396.00,52.00 396.00,114.00 396.00,114.00
             396.00,114.00 389.00,114.00 389.00,114.00
             389.00,114.00 389.00,110.00 389.00,110.00
             382.86,114.60 380.61,115.20 373.00,114.98
             358.11,114.57 356.86,101.65 357.00,90.00
             357.17,75.94 365.15,68.68 379.00,69.01
             383.49,69.12 384.82,69.65 389.00,71.00
             389.00,71.00 389.00,52.00 389.00,52.00
             389.00,52.00 396.00,52.00 396.00,52.00 Z
           M 467.00,52.00
           C 467.00,52.00 466.00,75.00 466.00,75.00
             466.00,75.00 459.00,75.00 459.00,75.00
             459.00,75.00 458.00,52.00 458.00,52.00
             458.00,52.00 467.00,52.00 467.00,52.00 Z
           M 706.00,52.00
           C 706.00,52.00 706.00,90.00 706.00,90.00
             709.99,86.01 722.75,72.16 727.00,70.60
             729.24,69.77 734.42,70.00 737.00,70.00
             737.00,70.00 717.00,91.00 717.00,91.00
             722.37,94.85 734.94,108.29 738.00,114.00
             732.53,114.00 728.64,114.96 724.42,110.85
             721.94,108.43 713.91,98.04 710.98,98.04
             704.79,98.04 706.00,110.07 706.00,114.00
             706.00,114.00 699.00,114.00 699.00,114.00
             699.00,114.00 699.00,52.00 699.00,52.00
             699.00,52.00 706.00,52.00 706.00,52.00 Z
           M 912.00,52.00
           C 912.00,52.00 912.00,114.00 912.00,114.00
             912.00,114.00 905.00,114.00 905.00,114.00
             905.00,114.00 905.00,110.00 905.00,110.00
             898.86,114.60 896.61,115.20 889.00,114.98
             874.11,114.57 872.86,101.65 873.00,90.00
             873.17,75.94 881.15,68.68 895.00,69.01
             899.49,69.12 900.82,69.65 905.00,71.00
             905.00,71.00 905.00,52.00 905.00,52.00
             905.00,52.00 912.00,52.00 912.00,52.00 Z
           M 1102.00,52.00
           C 1102.00,52.00 1102.00,114.00 1102.00,114.00
             1102.00,114.00 1095.00,114.00 1095.00,114.00
             1095.00,114.00 1095.00,110.00 1095.00,110.00
             1088.86,114.60 1086.61,115.20 1079.00,114.98
             1064.11,114.57 1062.86,101.65 1063.00,90.00
             1063.17,75.94 1071.15,68.68 1085.00,69.01
             1089.49,69.12 1090.82,69.65 1095.00,71.00
             1095.00,71.00 1095.00,52.00 1095.00,52.00
             1095.00,52.00 1102.00,52.00 1102.00,52.00 Z
           M 226.00,55.00
           C 226.00,55.00 226.00,62.00 226.00,62.00
             226.00,62.00 196.00,62.00 196.00,62.00
             196.00,62.00 196.00,79.00 196.00,79.00
             196.00,79.00 222.00,79.00 222.00,79.00
             222.00,79.00 222.00,86.00 222.00,86.00
             222.00,86.00 196.00,86.00 196.00,86.00
             196.00,86.00 196.00,114.00 196.00,114.00
             196.00,114.00 188.00,114.00 188.00,114.00
             188.00,114.00 188.00,55.00 188.00,55.00
             188.00,55.00 226.00,55.00 226.00,55.00 Z
           M 346.00,55.00
           C 346.00,55.00 346.00,63.00 346.00,63.00
             346.00,63.00 339.00,63.00 339.00,63.00
             339.00,63.00 339.00,55.00 339.00,55.00
             339.00,55.00 346.00,55.00 346.00,55.00 Z
           M 584.00,56.15
           C 591.18,58.97 594.39,68.04 590.83,74.99
             589.45,77.67 587.31,79.21 585.00,81.00
             600.76,84.01 599.84,103.48 590.91,109.89
             582.14,116.19 562.84,114.00 552.00,114.00
             552.00,114.00 552.00,55.00 552.00,55.00
             558.54,55.00 579.10,54.22 584.00,56.15 Z
           M 987.00,56.15
           C 994.18,58.97 997.39,68.04 993.83,74.99
             992.45,77.67 990.31,79.21 988.00,81.00
             1003.76,84.01 1002.84,103.48 993.91,109.89
             985.14,116.19 965.84,114.00 955.00,114.00
             955.00,114.00 955.00,55.00 955.00,55.00
             961.54,55.00 982.10,54.22 987.00,56.15 Z
           M 1017.00,55.00
           C 1017.00,55.00 1017.00,63.00 1017.00,63.00
             1017.00,63.00 1010.00,63.00 1010.00,63.00
             1010.00,63.00 1010.00,55.00 1010.00,55.00
             1010.00,55.00 1017.00,55.00 1017.00,55.00 Z
           M 578.94,76.83
           C 583.81,74.14 584.01,67.48 580.69,64.74
             577.75,62.32 564.19,62.00 560.00,62.00
             560.00,62.00 560.00,79.00 560.00,79.00
             564.53,79.00 575.15,78.92 578.94,76.83 Z
           M 981.94,76.83
           C 986.81,74.14 987.01,67.48 983.69,64.74
             980.75,62.32 967.19,62.00 963.00,62.00
             963.00,62.00 963.00,79.00 963.00,79.00
             967.53,79.00 978.15,78.92 981.94,76.83 Z
           M 285.83,72.79
           C 295.05,80.17 295.73,101.44 287.66,109.67
             282.61,114.83 277.72,115.08 271.00,115.00
             254.80,114.79 251.84,103.58 252.00,90.00
             252.13,79.92 255.33,73.50 265.00,69.65
             271.81,68.25 280.17,68.26 285.83,72.79 Z
           M 440.87,72.42
           C 445.27,76.22 444.99,80.73 445.00,86.00
             445.00,86.00 445.00,114.00 445.00,114.00
             445.00,114.00 438.00,114.00 438.00,114.00
             438.00,114.00 438.00,110.00 438.00,110.00
             431.80,114.39 422.39,117.00 415.00,113.99
             406.51,110.54 403.83,97.81 410.23,91.21
             416.62,84.62 429.46,85.00 438.00,85.00
             437.12,82.80 436.30,80.12 434.57,78.43
             428.99,72.96 417.44,77.85 411.00,79.00
             411.00,79.00 411.00,70.00 411.00,70.00
             419.10,69.34 434.34,66.78 440.87,72.42 Z
           M 488.00,107.01
           C 491.09,108.11 497.00,108.59 499.94,107.01
             502.69,105.47 504.63,102.24 502.38,99.43
             497.69,93.54 479.04,98.18 478.05,84.00
             476.73,64.99 499.05,68.31 511.00,71.00
             511.00,71.00 511.00,80.00 511.00,80.00
             511.00,80.00 502.00,76.79 502.00,76.79
             497.90,75.63 490.07,75.10 488.17,80.05
             486.38,84.71 492.71,86.79 496.00,87.57
             505.77,89.91 513.83,90.25 512.95,103.00
             512.12,114.92 500.02,115.11 491.00,115.00
             487.72,114.96 482.06,114.57 479.60,112.16
             477.53,110.13 478.00,105.72 478.00,103.00
             478.00,103.00 488.00,107.01 488.00,107.01 Z
           M 637.87,72.42
           C 642.27,76.22 641.99,80.73 642.00,86.00
             642.00,86.00 642.00,114.00 642.00,114.00
             642.00,114.00 635.00,114.00 635.00,114.00
             635.00,114.00 635.00,110.00 635.00,110.00
             628.80,114.39 619.39,117.00 612.00,113.99
             603.51,110.54 600.83,97.81 607.23,91.21
             613.62,84.62 626.46,85.00 635.00,85.00
             634.12,82.80 633.30,80.12 631.57,78.43
             625.99,72.96 614.44,77.85 608.00,79.00
             608.00,79.00 608.00,70.00 608.00,70.00
             616.10,69.34 631.34,66.78 637.87,72.42 Z
           M 687.98,111.68
           C 683.84,117.39 666.24,115.33 661.04,111.68
             652.80,106.39 652.90,98.77 653.00,90.00
             653.11,81.10 656.42,74.07 665.00,70.36
             669.69,68.34 684.73,67.88 687.98,72.51
             689.30,74.39 689.00,78.69 689.00,81.00
             682.01,78.44 675.70,73.05 668.09,78.01
             658.94,83.96 659.74,104.09 671.00,107.49
             677.76,109.53 683.04,105.18 689.00,103.00
             689.00,105.31 689.30,109.61 687.98,111.68 Z
           M 822.87,72.42
           C 827.27,76.22 826.99,80.73 827.00,86.00
             827.00,86.00 827.00,114.00 827.00,114.00
             827.00,114.00 820.00,114.00 820.00,114.00
             820.00,114.00 820.00,110.00 820.00,110.00
             813.80,114.39 804.39,117.00 797.00,113.99
             788.51,110.54 785.83,97.81 792.23,91.21
             798.62,84.62 811.46,85.00 820.00,85.00
             819.12,82.80 818.30,80.12 816.57,78.43
             810.99,72.96 799.44,77.85 793.00,79.00
             793.00,79.00 793.00,70.00 793.00,70.00
             801.10,69.34 816.34,66.78 822.87,72.42 Z
           M 1123.00,107.01
           C 1126.09,108.11 1132.00,108.59 1134.94,107.01
             1137.69,105.47 1139.63,102.24 1137.38,99.43
             1132.69,93.54 1114.04,98.18 1113.05,84.00
             1111.73,64.99 1134.05,68.31 1146.00,71.00
             1146.00,71.00 1146.00,80.00 1146.00,80.00
             1146.00,80.00 1137.00,76.79 1137.00,76.79
             1132.90,75.63 1125.07,75.10 1123.17,80.05
             1121.38,84.71 1127.71,86.79 1131.00,87.57
             1140.77,89.91 1148.83,90.25 1147.95,103.00
             1147.12,114.92 1135.02,115.11 1126.00,115.00
             1122.72,114.96 1117.06,114.57 1114.60,112.16
             1112.53,110.13 1113.00,105.72 1113.00,103.00
             1113.00,103.00 1123.00,107.01 1123.00,107.01 Z
           M 311.00,70.00
           C 311.00,70.00 311.00,75.00 311.00,75.00
             321.72,69.34 319.98,70.00 332.00,70.00
             332.00,70.00 332.00,78.00 332.00,78.00
             325.31,78.00 317.23,77.29 312.60,83.33
             310.99,85.42 311.05,87.50 311.00,90.00
             311.00,90.00 311.00,114.00 311.00,114.00
             311.00,114.00 304.00,114.00 304.00,114.00
             304.00,114.00 304.00,70.00 304.00,70.00
             304.00,70.00 311.00,70.00 311.00,70.00 Z
           M 346.00,70.00
           C 346.00,70.00 346.00,114.00 346.00,114.00
             346.00,114.00 339.00,114.00 339.00,114.00
             339.00,114.00 339.00,70.00 339.00,70.00
             339.00,70.00 346.00,70.00 346.00,70.00 Z
           M 750.00,70.00
           C 750.00,70.00 762.00,100.00 762.00,100.00
             762.00,100.00 764.00,100.00 764.00,100.00
             764.00,100.00 776.00,70.00 776.00,70.00
             776.00,70.00 785.00,70.00 785.00,70.00
             785.00,70.00 778.85,86.00 778.85,86.00
             778.85,86.00 760.00,130.00 760.00,130.00
             760.00,130.00 750.00,130.00 750.00,130.00
             750.00,130.00 757.24,112.00 757.24,112.00
             757.24,112.00 753.00,100.00 753.00,100.00
             753.00,100.00 741.00,70.00 741.00,70.00
             741.00,70.00 750.00,70.00 750.00,70.00 Z
           M 848.00,70.00
           C 848.00,70.00 848.00,75.00 848.00,75.00
             858.72,69.34 856.98,70.00 869.00,70.00
             869.00,70.00 869.00,78.00 869.00,78.00
             862.31,78.00 854.23,77.29 849.60,83.33
             847.99,85.42 848.05,87.50 848.00,90.00
             848.00,90.00 848.00,114.00 848.00,114.00
             848.00,114.00 841.00,114.00 841.00,114.00
             841.00,114.00 841.00,70.00 841.00,70.00
             841.00,70.00 848.00,70.00 848.00,70.00 Z
           M 1017.00,70.00
           C 1017.00,70.00 1017.00,114.00 1017.00,114.00
             1017.00,114.00 1010.00,114.00 1010.00,114.00
             1010.00,114.00 1010.00,70.00 1010.00,70.00
             1010.00,70.00 1017.00,70.00 1017.00,70.00 Z
           M 1038.00,70.00
           C 1038.00,70.00 1038.00,75.00 1038.00,75.00
             1048.72,69.34 1046.98,70.00 1059.00,70.00
             1059.00,70.00 1059.00,78.00 1059.00,78.00
             1052.31,78.00 1044.23,77.29 1039.60,83.33
             1037.99,85.42 1038.05,87.50 1038.00,90.00
             1038.00,90.00 1038.00,114.00 1038.00,114.00
             1038.00,114.00 1031.00,114.00 1031.00,114.00
             1031.00,114.00 1031.00,70.00 1031.00,70.00
             1031.00,70.00 1038.00,70.00 1038.00,70.00 Z
           M 263.01,81.04
           C 259.97,85.83 257.82,106.61 271.00,107.89
             288.19,109.56 286.43,82.91 278.90,77.74
             275.85,75.65 272.45,75.92 269.00,76.43
             266.06,77.62 264.79,78.23 263.01,81.04 Z
           M 368.23,81.09
           C 364.46,87.00 362.35,113.83 382.00,107.15
             391.51,103.91 389.01,94.12 389.00,86.00
             389.00,83.93 389.25,80.36 388.01,78.65
             385.47,75.17 377.72,75.84 374.01,76.51
             371.19,77.76 369.97,78.36 368.23,81.09 Z
           M 884.23,81.09
           C 880.46,87.00 878.35,113.83 898.00,107.15
             907.51,103.91 905.01,94.12 905.00,86.00
             905.00,83.93 905.25,80.36 904.01,78.65
             901.47,75.17 893.72,75.84 890.01,76.51
             887.19,77.76 885.97,78.36 884.23,81.09 Z
           M 1074.23,81.09
           C 1070.46,87.00 1068.35,113.83 1088.00,107.15
             1097.51,103.91 1095.01,94.12 1095.00,86.00
             1095.00,83.93 1095.25,80.36 1094.01,78.65
             1091.47,75.17 1083.72,75.84 1080.01,76.51
             1077.19,77.76 1075.97,78.36 1074.23,81.09 Z
           M 583.94,104.15
           C 588.44,101.21 589.66,93.51 585.57,89.65
             581.53,85.84 565.74,86.00 560.00,86.00
             560.00,86.00 560.00,107.00 560.00,107.00
             565.02,107.00 580.15,106.62 583.94,104.15 Z
           M 986.94,104.15
           C 991.44,101.21 992.66,93.51 988.57,89.65
             984.53,85.84 968.74,86.00 963.00,86.00
             963.00,86.00 963.00,107.00 963.00,107.00
             968.02,107.00 983.15,106.62 986.94,104.15 Z
           M 434.00,92.00
           C 430.82,92.02 429.19,92.02 426.00,92.62
             424.13,92.97 421.72,93.52 420.06,94.45
             415.07,97.24 415.03,103.63 418.31,106.40
             422.15,109.63 434.86,108.12 437.40,101.90
             438.23,99.87 438.00,94.41 438.00,92.00
             438.00,92.00 434.00,92.00 434.00,92.00 Z
           M 631.00,92.00
           C 627.82,92.02 626.19,92.02 623.00,92.62
             621.13,92.97 618.72,93.52 617.06,94.45
             612.07,97.24 612.03,103.63 615.31,106.40
             619.15,109.63 631.86,108.12 634.40,101.90
             635.23,99.87 635.00,94.41 635.00,92.00
             635.00,92.00 631.00,92.00 631.00,92.00 Z
           M 816.00,92.00
           C 812.82,92.02 811.19,92.02 808.00,92.62
             806.13,92.97 803.72,93.52 802.06,94.45
             797.07,97.24 797.03,103.63 800.31,106.40
             804.15,109.63 816.86,108.12 819.40,101.90
             820.23,99.87 820.00,94.41 820.00,92.00
             820.00,92.00 816.00,92.00 816.00,92.00 Z
           M 89.00,146.00
           C 89.00,146.00 90.00,147.00 90.00,147.00
             90.00,147.00 90.00,146.00 90.00,146.00
             90.00,146.00 89.00,146.00 89.00,146.00 Z" />
</svg>
