<?xml version="1.0" encoding="UTF-8" standalone="no"?>
<!DOCTYPE svg PUBLIC "-//W3C//DTD SVG 20010904//EN"
              "http://www.w3.org/TR/2001/REC-SVG-20010904/DTD/svg10.dtd">

<svg xmlns="http://www.w3.org/2000/svg"
     width="3.47222in" height="3.47222in"
     viewBox="0 0 250 250">
  <path id="Selection"
        fill="black" stroke="black" stroke-width="1"
        d="M 29.21,44.57
           C 32.19,42.02 38.13,40.66 42.00,40.33
             49.80,39.65 57.06,43.87 60.35,51.00
             60.35,51.00 63.19,59.00 63.19,59.00
             64.61,62.08 66.44,64.18 68.24,67.00
             69.86,69.53 70.51,71.26 73.11,73.12
             77.07,75.97 86.43,76.55 92.00,78.55
             92.00,78.55 114.00,90.34 114.00,90.34
             121.09,94.41 127.81,101.08 134.00,106.42
             135.87,108.04 139.99,111.99 142.00,112.84
             148.55,115.62 161.72,102.67 167.91,103.50
             169.30,103.68 170.31,104.28 171.24,105.32
             174.96,109.46 171.62,112.66 169.00,116.00
             169.00,116.00 154.00,124.00 154.00,124.00
             157.77,128.98 162.70,134.38 168.00,137.73
             168.00,137.73 183.96,146.63 183.96,146.63
             186.54,148.62 190.38,153.39 184.93,154.65
             183.07,155.08 179.91,154.34 178.00,154.00
             184.51,160.36 184.66,159.68 191.00,164.67
             191.00,164.67 203.42,174.95 203.42,174.95
             203.42,174.95 223.00,188.43 223.00,188.43
             226.45,190.91 237.18,197.54 235.30,202.68
             234.46,204.97 231.90,204.66 230.00,204.22
             226.02,203.29 220.49,198.91 216.00,196.78
             216.00,196.78 157.00,171.00 157.00,171.00
             157.59,172.51 158.50,174.17 158.13,175.86
             156.81,181.95 142.18,179.39 138.00,178.55
             138.00,178.55 115.00,173.97 115.00,173.97
             115.00,173.97 107.00,171.68 107.00,171.68
             107.00,171.68 98.00,169.78 98.00,169.78
             92.74,168.13 82.38,161.61 78.00,161.52
             78.00,161.52 56.00,166.35 56.00,166.35
             53.16,167.23 48.06,169.30 45.18,168.67
             42.84,168.15 40.05,164.71 38.00,163.00
             38.00,163.00 40.29,159.93 40.29,159.93
             40.29,159.93 62.00,153.00 62.00,153.00
             52.13,145.99 53.95,146.37 46.69,138.09
             46.69,138.09 41.10,132.34 41.10,132.34
             37.04,127.43 34.79,119.01 34.23,112.72
             34.23,112.72 36.00,81.00 36.00,81.00
             35.97,73.85 33.58,63.46 24.00,64.74
             21.47,65.08 16.98,67.87 14.00,69.00
             14.00,69.00 21.00,57.00 21.00,57.00
             25.44,52.35 24.89,48.26 29.21,44.57 Z" />
</svg>
