<?xml version="1.0" encoding="UTF-8" standalone="no"?>
<!DOCTYPE svg PUBLIC "-//W3C//DTD SVG 20010904//EN"
              "http://www.w3.org/TR/2001/REC-SVG-20010904/DTD/svg10.dtd">

<svg xmlns="http://www.w3.org/2000/svg"
     width="3.47222in" height="3.47222in"
     viewBox="0 0 250 250">
  <path id="Selection"
        fill="black" stroke="black" stroke-width="1"
        d="M 61.00,74.19
           C 69.82,69.32 75.91,62.19 88.00,63.19
             95.65,63.82 100.60,67.31 107.00,69.20
             107.00,69.20 119.00,71.00 119.00,71.00
             119.00,71.00 135.00,75.00 135.00,75.00
             135.00,75.00 154.00,79.61 154.00,79.61
             157.03,80.18 162.39,80.36 164.85,81.65
             167.48,83.03 167.55,84.37 168.00,87.00
             168.00,87.00 202.00,87.00 202.00,87.00
             203.48,87.03 205.36,87.00 206.74,87.60
             208.55,88.38 209.75,90.20 211.16,91.54
             213.70,93.95 218.35,97.42 214.40,101.26
             211.82,103.77 207.19,102.31 204.00,102.05
             195.69,101.52 187.30,100.94 179.00,102.05
             174.71,102.58 157.24,107.72 154.26,110.42
             150.14,114.15 146.65,123.14 142.67,126.83
             138.89,130.33 133.98,131.60 131.04,133.69
             126.66,136.82 121.09,147.58 120.15,152.91
             119.12,158.75 125.45,164.78 128.92,169.00
             128.92,169.00 141.67,186.00 141.67,186.00
             147.18,193.01 149.06,193.17 153.00,202.00
             153.00,202.00 143.00,202.97 143.00,202.97
             141.21,208.08 138.87,206.31 136.04,202.97
             136.04,202.97 126.42,190.00 126.42,190.00
             122.48,184.72 117.97,179.77 113.29,175.14
             113.29,175.14 107.99,170.46 107.99,170.46
             107.99,170.46 105.28,164.09 105.28,164.09
             102.98,160.46 89.55,145.56 86.00,142.16
             82.51,138.81 79.77,135.04 75.00,134.00
             75.00,134.00 61.06,114.00 61.06,114.00
             61.06,114.00 63.00,101.00 63.00,101.00
             63.00,101.00 71.00,106.00 71.00,106.00
             67.63,98.85 63.78,89.09 57.00,84.58
             54.18,82.71 49.43,82.13 46.00,81.00
             46.00,81.00 46.00,79.00 46.00,79.00
             46.00,79.00 61.00,74.19 61.00,74.19 Z
           M 93.00,129.00
           C 93.00,129.00 94.00,130.00 94.00,130.00
             94.00,130.00 94.00,129.00 94.00,129.00
             94.00,129.00 93.00,129.00 93.00,129.00 Z
           M 104.83,142.28
           C 106.79,144.19 108.86,146.94 111.04,148.41
             112.63,149.48 113.29,149.50 115.00,150.00
             118.26,143.83 120.35,141.18 121.00,134.00
             108.76,134.00 106.82,133.43 95.00,130.00
             95.80,135.30 101.20,138.75 104.83,142.28 Z" />
</svg>
