<?xml version="1.0" encoding="UTF-8" standalone="no"?>
<!DOCTYPE svg PUBLIC "-//W3C//DTD SVG 20010904//EN"
              "http://www.w3.org/TR/2001/REC-SVG-20010904/DTD/svg10.dtd">

<svg xmlns="http://www.w3.org/2000/svg"
     width="3.47222in" height="3.47222in"
     viewBox="0 0 250 250">
  <path id="Selection"
        fill="black" stroke="black" stroke-width="1"
        d="M 119.83,40.44
           C 119.83,40.44 129.28,30.33 129.28,30.33
             134.47,25.47 140.10,24.08 147.00,24.00
             149.71,23.97 154.52,23.86 157.00,24.57
             169.69,28.20 169.46,45.65 171.97,51.00
             173.55,54.37 177.63,58.34 179.71,66.00
             182.29,75.48 182.11,86.24 182.00,96.00
             181.89,105.29 178.75,114.17 176.28,123.00
             174.87,128.08 172.45,137.52 170.37,142.00
             163.94,155.85 162.46,153.90 160.16,158.09
             158.72,160.70 157.31,169.57 156.60,173.00
             156.24,174.72 155.79,177.86 154.30,178.96
             150.01,182.16 146.70,174.68 146.56,170.00
             146.43,165.96 146.69,166.36 146.00,162.00
             141.15,166.96 135.39,173.34 133.11,180.00
             132.01,183.20 131.50,193.58 131.88,197.00
             131.88,197.00 133.00,206.00 133.00,206.00
             133.00,206.00 133.00,216.00 133.00,216.00
             133.00,216.00 124.00,214.37 124.00,214.37
             121.38,213.58 119.86,212.19 117.00,212.00
             113.49,211.76 105.63,213.77 102.00,214.75
             97.86,215.43 95.06,214.62 92.58,214.75
             92.58,214.75 86.09,216.67 86.09,216.67
             78.12,217.73 79.35,211.41 78.57,206.00
             78.14,203.00 77.40,200.06 77.84,197.00
             77.84,197.00 77.84,170.00 77.84,170.00
             77.84,170.00 77.13,159.00 77.13,159.00
             77.13,159.00 77.98,149.00 77.98,149.00
             77.98,149.00 74.39,122.00 74.39,122.00
             74.32,117.29 76.55,116.58 76.95,111.00
             76.95,111.00 76.04,95.00 76.04,95.00
             76.37,89.20 78.45,88.77 79.38,85.00
             80.07,80.14 75.87,67.97 79.38,64.91
             81.82,63.27 87.40,64.32 90.00,64.91
             90.00,64.91 106.00,67.52 106.00,67.52
             106.00,67.52 114.00,70.00 114.00,70.00
             114.00,70.00 116.74,80.44 116.74,80.44
             116.74,80.44 125.00,86.00 125.00,86.00
             125.00,86.00 130.77,60.00 130.77,60.00
             131.65,53.92 125.19,49.49 120.00,47.94
             120.00,47.94 110.00,46.00 110.00,46.00
             110.00,46.00 110.00,44.00 110.00,44.00
             113.15,42.96 117.24,42.38 119.83,40.44 Z
           M 126.00,97.00
           C 126.00,97.00 125.00,93.00 125.00,93.00
             124.24,95.34 124.17,95.37 126.00,97.00 Z
           M 124.00,127.00
           C 124.00,127.00 124.70,135.00 124.70,135.00
             124.70,135.00 129.48,143.17 129.48,143.17
             129.48,143.17 132.00,152.00 132.00,152.00
             132.00,152.00 133.66,140.00 133.66,140.00
             133.66,140.00 127.48,123.00 127.48,123.00
             127.48,123.00 125.00,106.00 125.00,106.00
             125.00,106.00 124.00,127.00 124.00,127.00 Z" />
</svg>
